# xmcd CD database file
#
# Track frame offsets:
#	150
#	19795
#	40727
#	58035
#
# Disc length: 1033 seconds
#
# Revision: 0
# Processed by: cddbd v1.5.1PL0 Copyright (c) Steve Scherf et al.
# Submitted via: CDex 1.51
#
DISCID=2a040704
DTITLE=NEWS - TEPPEN
DYEAR=2005
DGENRE=JPop
TTITLE0=TEPPEN
TTITLE1=夢の数だけ愛が生まれる
TTITLE2=NANDE × 2 DAME
TTITLE3=TEPPEN (オリジナル・カラオケ)
EXTD=YEAR: 2005
EXTT0=
EXTT1=
EXTT2=
EXTT3=
PLAYORDER=
